<svg version="1.2" xmlns="http://www.w3.org/2000/svg" width="512" height="177">
  <path fill-rule="evenodd"
    d="M229.7 89q0-6.4 2-12t5.7-9.7q3.7-4.1 9-6.4 5.3-2.3 11.9-2.3 8.2 0 15.5 3l-2.9 10.9q-2.3-1-5.2-1.6-3-.7-6.3-.7-7.8 0-11.9 4.9-4.1 4.9-4.1 13.9 0 8.6 3.9 13.7 3.8 5 13 5 3.4 0 6.8-.7 3.3-.6 5.7-1.6l1.9 11q-2.2 1.1-6.7 2-4.5.9-9.2.9-7.5 0-12.9-2.3-5.5-2.2-9.1-6.3-3.6-4-5.4-9.6-1.7-5.6-1.7-12.1zm104.1 27.1q-4 1.2-10 2.2-6.1 1-12.7 1-6.8 0-12.3-2.1-5.4-2.1-9.2-6-3.8-4-5.9-9.5-2-5.6-2-12.6 0-6.8 1.7-12.4 1.7-5.6 5-9.6.9-1 1.8-1.9.9-.9 1.9-1.6 1-.8 2.1-1.5 1.1-.6 2.3-1.1 4.8-2.2 11-2.2 4.2 0 7.4 1t5.5 2.2V34.3l13.4-2.3zm-38.4-27.3q0 8.9 4.2 13.9t11.6 5q3.2 0 5.5-.2 2.3-.3 3.7-.6V73.7q-1.8-1.2-4.7-2.3-2.9-1-6.2-1-7.3 0-10.7 4.9-3.4 5-3.4 13.5zM351.7 62q3.9-1.2 10.1-2.1 6.2-1 13.7-1 7.1 0 11.9 1.9 4.7 1.9 7.5 5.4 2.8 3.5 4 8.4 1.2 4.9 1.2 10.8v32.5h-13.4V87.5q0-4.6-.6-7.9-.6-3.3-2-5.3-1.4-2.1-3.8-3-2.3-.9-5.8-.9-2.5 0-5.3.3-2.7.3-4.1.5v46.7h-13.4z"
    fill="#a4b0be" />
  <path fill-rule="evenodd"
    d="M138.6 139.3q-1.4 0-4-.2-2.6-.3-4.6-1.1l1.8-10.9q2.4.7 5.8.7 4.7 0 6.6-2.7 1.8-2.7 1.8-8.1V60.9h13.4v56.3q0 11.3-5.3 16.7-5.4 5.4-15.5 5.4zm19.8-101.4q-2.4-2.2-5.7-2.2-3.4 0-5.9 2.2-2.4 2.2-2.4 6.1 0 3.8 2.4 6 2.5 2.2 5.9 2.2 3.3 0 5.7-2.2 2.5-2.2 2.5-6 0-3.9-2.5-6.1zm24 70.1q-4.1-1.1-7.1-2.3l-2.3 11.2q1.8.8 6.5 2 4.6 1.3 12.3 1.3 11.4 0 17.5-4.2 6.1-4.3 6.1-12.6 0-3.9-1-6.6-1-2.8-3.1-5-2.2-2.1-5.5-3.8-3.3-1.7-8.1-3.5-2.8-1-4.8-1.9-2-1-3.2-1.9-1.3-1-1.8-2.1-.4-1.1-.4-2.5-.1-2.9 2.5-4.3 2.5-1.4 6.6-1.4 4.6 0 8 .9 3.4.8 5.6 1.8l2.5-10.8q-2.4-.9-7-1.9-4.6-.9-9.7-.9-10.1 0-16 4.6-5.8 4.6-5.8 12.5 0 4.1 1.3 7 1.2 2.8 3.4 4.8t5.3 3.4q3 1.5 6.7 2.9 5.9 2.2 8.5 4.1 2.6 1.8 2.6 4.7 0 3.1-2.4 4.4-2.4 1.3-7.7 1.3-5.3 0-9.5-1.2z"
    fill="#fff" />
  <path fill="none" stroke="#ced6e0" stroke-width="10" stroke-linecap="round"
    d="M114.6 136.5L61.4 91.6q-.9-.8-1.4-1.9-.6-1.1-.6-2.3 0-1.2.5-2.3.5-1.1 1.4-1.9l53.3-47.6M400.8 40.7l53.4 47.6q.9.8 1.3 1.9.5 1.1.5 2.3 0 1.2-.5 2.3-.5 1.1-1.5 1.9l-53.2 45" />
</svg>